<mxfile host="app.diagrams.net" modified="2021-03-05T10:30:15.327Z" agent="5.0 (Macintosh; Intel Mac OS X 10_15_6) AppleWebKit/605.1.15 (KHTML, like Gecko) Version/14.0.3 Safari/605.1.15" etag="ojfII3p-L6zXE8fD_qIc" version="14.4.3" type="github">
  <diagram id="AM3MqMmhd_MmUZGf_nfw" name="Page-1">
    <mxGraphModel dx="2066" dy="1185" grid="1" gridSize="10" guides="1" tooltips="1" connect="1" arrows="1" fold="1" page="1" pageScale="1" pageWidth="827" pageHeight="1169" math="0" shadow="0">
      <root>
        <mxCell id="0" />
        <mxCell id="1" parent="0" />
        <mxCell id="rKaDp64cmPsS5tly5jfF-2" value="" style="rounded=0;whiteSpace=wrap;html=1;" vertex="1" parent="1">
          <mxGeometry x="120" y="160" width="440" height="200" as="geometry" />
        </mxCell>
        <mxCell id="rKaDp64cmPsS5tly5jfF-5" style="edgeStyle=orthogonalEdgeStyle;rounded=0;orthogonalLoop=1;jettySize=auto;html=1;exitX=1;exitY=0.5;exitDx=0;exitDy=0;entryX=0;entryY=0.5;entryDx=0;entryDy=0;startArrow=classic;startFill=1;" edge="1" parent="1" source="rKaDp64cmPsS5tly5jfF-3" target="rKaDp64cmPsS5tly5jfF-4">
          <mxGeometry relative="1" as="geometry" />
        </mxCell>
        <mxCell id="rKaDp64cmPsS5tly5jfF-7" value="TCP/IP" style="edgeLabel;html=1;align=center;verticalAlign=middle;resizable=0;points=[];" vertex="1" connectable="0" parent="rKaDp64cmPsS5tly5jfF-5">
          <mxGeometry x="-0.05" y="1" relative="1" as="geometry">
            <mxPoint as="offset" />
          </mxGeometry>
        </mxCell>
        <mxCell id="rKaDp64cmPsS5tly5jfF-3" value="Aplikace" style="rounded=0;whiteSpace=wrap;html=1;" vertex="1" parent="1">
          <mxGeometry x="160" y="200" width="120" height="120" as="geometry" />
        </mxCell>
        <mxCell id="rKaDp64cmPsS5tly5jfF-4" value="PostgreSQL" style="rounded=0;whiteSpace=wrap;html=1;" vertex="1" parent="1">
          <mxGeometry x="400" y="200" width="120" height="120" as="geometry" />
        </mxCell>
        <mxCell id="rKaDp64cmPsS5tly5jfF-10" value="&lt;font size=&quot;4&quot;&gt;Společná síť&lt;/font&gt;" style="text;html=1;strokeColor=none;fillColor=none;align=center;verticalAlign=middle;whiteSpace=wrap;rounded=0;" vertex="1" parent="1">
          <mxGeometry x="250" y="130" width="180" height="20" as="geometry" />
        </mxCell>
      </root>
    </mxGraphModel>
  </diagram>
</mxfile>
